<svg width="18" height="18" viewBox="0 0 18 18" fill="none" xmlns="http://www.w3.org/2000/svg">
<path fill-rule="evenodd" clip-rule="evenodd" d="M17.5333 8.66994C17.5333 9.24703 17.4746 9.82332 17.3592 10.3851C17.2467 10.9335 17.08 11.4719 16.8616 11.9866C16.6483 12.4922 16.3837 12.9794 16.0745 13.4337C15.77 13.8852 15.4191 14.3088 15.0336 14.6949C14.6474 15.0794 14.2224 15.4293 13.7711 15.7351C13.3152 16.0422 12.8273 16.3064 12.3214 16.5207C11.806 16.7379 11.2664 16.9043 10.7184 17.0166C10.1559 17.1323 9.57754 17.1914 8.99961 17.1914C8.42125 17.1914 7.84289 17.1323 7.2812 17.0166C6.73243 16.9043 6.19281 16.7379 5.67778 16.5207C5.17193 16.3064 4.68355 16.0422 4.2277 15.7351C3.77643 15.4293 3.35141 15.0794 2.96597 14.6949C2.58013 14.3088 2.22926 13.8852 1.92425 13.4337C1.61673 12.9794 1.3517 12.4921 1.13754 11.9866C0.919167 11.4719 0.752099 10.9334 0.639172 10.3851C0.52501 9.82332 0.46666 9.24703 0.46666 8.66994C0.46666 8.09241 0.524977 7.51489 0.639206 6.95437C0.752132 6.40596 0.919201 5.86673 1.13757 5.35287C1.35173 4.84692 1.61677 4.35928 1.92428 3.90489C2.2293 3.45303 2.58017 3.03026 2.96601 2.64371C3.35145 2.25923 3.77647 1.91016 4.22774 1.60476C4.68359 1.29642 5.17196 1.03224 5.67781 0.817515C6.19285 0.599859 6.73243 0.433031 7.28123 0.321535C7.84292 0.206704 8.42128 0.148438 8.99964 0.148438C9.57757 0.148438 10.1559 0.206704 10.7185 0.321535C11.2664 0.433065 11.806 0.599892 12.3215 0.817515C12.8273 1.0322 13.3153 1.29642 13.7711 1.60476C14.2224 1.91016 14.6474 2.25923 15.0337 2.64371C15.4191 3.03026 15.77 3.45303 16.0746 3.90489C16.3837 4.35928 16.6483 4.84695 16.8616 5.35287C17.08 5.86673 17.2467 6.40596 17.3592 6.95437C17.4746 7.51489 17.5333 8.09241 17.5333 8.66994ZM5.89024 2.08782C3.85804 3.04609 2.34129 4.91598 1.86834 7.16951C2.06046 7.17118 5.09729 7.20947 8.59621 6.28115C7.33491 4.04342 5.98734 2.21726 5.89024 2.08782ZM9.19998 7.40172C5.44772 8.52345 1.8471 8.44274 1.71794 8.43777C1.71583 8.51598 1.71209 8.59169 1.71209 8.66993C1.71209 10.5394 2.41838 12.2437 3.57927 13.5323C3.57677 13.5286 5.57107 9.99558 9.50376 8.7257C9.59875 8.69408 9.69544 8.66576 9.79127 8.63831C9.60837 8.22475 9.40873 7.81031 9.19998 7.40172ZM13.8123 3.20836C12.5293 2.07865 10.8447 1.3934 8.99958 1.3934C8.40746 1.3934 7.83284 1.46497 7.28241 1.59728C7.39156 1.74376 8.7604 3.55705 10.0067 5.84217C12.7565 4.81279 13.7944 3.23497 13.8123 3.20836ZM10.288 9.84413C10.2718 9.8495 10.2556 9.85414 10.2397 9.85994C5.93995 11.3567 4.53581 14.3732 4.52062 14.4061C5.7578 15.3668 7.30954 15.9465 8.99963 15.9465C10.0088 15.9465 10.9701 15.7413 11.8447 15.3698C11.7368 14.734 11.3135 12.5054 10.288 9.84413ZM13.0719 14.7049C14.7082 13.6023 15.8703 11.8514 16.1945 9.82329C16.0445 9.77503 14.0057 9.1305 11.6534 9.50708C12.6093 12.1301 12.9977 14.2663 13.0719 14.7049ZM10.5676 6.92652C10.7368 7.27354 10.9006 7.62674 11.0518 7.98171C11.1056 8.10905 11.1581 8.23389 11.2093 8.35869C13.7128 8.04411 16.1791 8.57338 16.2846 8.59499C16.2679 6.86992 15.65 5.28669 14.6274 4.04719C14.6137 4.0667 13.4449 5.75312 10.5676 6.92652Z" fill="white"/>
</svg>
