<svg width="18" height="18" viewBox="0 0 18 18" fill="none" xmlns="http://www.w3.org/2000/svg">
<path fill-rule="evenodd" clip-rule="evenodd" d="M9.0008 0.148438C6.68326 0.148438 6.39242 0.158571 5.48219 0.199994C4.57373 0.241594 3.95364 0.385418 3.41105 0.596442C2.8498 0.8144 2.37371 1.10596 1.89939 1.58045C1.42472 2.05477 1.13316 2.53086 0.914494 3.09193C0.702936 3.6347 0.558935 4.25497 0.518045 5.16307C0.477334 6.0733 0.466667 6.36432 0.466667 8.68186C0.466667 10.9994 0.476978 11.2894 0.518223 12.1996C0.560001 13.108 0.703825 13.7281 0.914672 14.2707C1.13281 14.832 1.42437 15.3081 1.89886 15.7824C2.373 16.257 2.84909 16.5493 3.40999 16.7673C3.95293 16.9783 4.5732 17.1221 5.48147 17.1637C6.39171 17.2051 6.68238 17.2153 8.99973 17.2153C11.3174 17.2153 11.6074 17.2051 12.5176 17.1637C13.4261 17.1221 14.0469 16.9783 14.5898 16.7673C15.1509 16.5493 15.6263 16.257 16.1004 15.7824C16.5751 15.3081 16.8667 14.832 17.0853 14.2709C17.2951 13.7281 17.4391 13.1079 17.4818 12.1998C17.5227 11.2895 17.5333 10.9994 17.5333 8.68186C17.5333 6.36432 17.5227 6.07348 17.4818 5.16324C17.4391 4.25479 17.2951 3.6347 17.0853 3.09211C16.8667 2.53086 16.5751 2.05477 16.1004 1.58045C15.6258 1.10578 15.1511 0.814222 14.5893 0.596442C14.0453 0.385418 13.4248 0.241594 12.5164 0.199994C11.6062 0.158571 11.3164 0.148438 8.99813 0.148438H9.0008ZM8.23524 1.68621C8.46245 1.68585 8.71596 1.68621 9.00076 1.68621C11.2792 1.68621 11.5492 1.69439 12.449 1.73527C13.281 1.77332 13.7325 1.91234 14.0333 2.02914C14.4316 2.18381 14.7155 2.3687 15.014 2.66737C15.3127 2.96604 15.4975 3.25049 15.6526 3.64872C15.7694 3.94916 15.9086 4.40072 15.9464 5.23273C15.9873 6.1323 15.9962 6.40252 15.9962 8.67988C15.9962 10.9572 15.9873 11.2275 15.9464 12.127C15.9084 12.959 15.7694 13.4106 15.6526 13.711C15.4979 14.1093 15.3127 14.3928 15.014 14.6913C14.7153 14.99 14.4318 15.1749 14.0333 15.3295C13.7329 15.4469 13.281 15.5856 12.449 15.6236C11.5494 15.6645 11.2792 15.6734 9.00076 15.6734C6.72216 15.6734 6.45212 15.6645 5.55255 15.6236C4.72054 15.5852 4.26898 15.4462 3.968 15.3294C3.56977 15.1747 3.28533 14.9898 2.98666 14.6911C2.68799 14.3925 2.5031 14.1087 2.34807 13.7103C2.23127 13.4099 2.09207 12.9583 2.0542 12.1263C2.01331 11.2268 2.00514 10.9565 2.00514 8.67775C2.00514 6.39897 2.01331 6.13017 2.0542 5.2306C2.09225 4.39859 2.23127 3.94703 2.34807 3.64623C2.50274 3.248 2.68799 2.96355 2.98666 2.66488C3.28533 2.36621 3.56977 2.18132 3.968 2.0263C4.2688 1.90897 4.72054 1.7703 5.55255 1.73207C6.33976 1.69652 6.64483 1.68585 8.23524 1.68407V1.68621ZM13.5558 3.10311C12.9905 3.10311 12.5318 3.56125 12.5318 4.12677C12.5318 4.69211 12.9905 5.15078 13.5558 5.15078C14.1212 5.15078 14.5798 4.69211 14.5798 4.12677C14.5798 3.56143 14.1212 3.10311 13.5558 3.10311ZM9.00082 4.29957C6.5807 4.29957 4.61855 6.26172 4.61855 8.68184C4.61855 11.1019 6.5807 13.0632 9.00082 13.0632C11.4209 13.0632 13.3824 11.1019 13.3824 8.68184C13.3824 6.26172 11.4209 4.29957 9.00082 4.29957ZM9.00078 5.83736C10.5716 5.83736 11.8453 7.1108 11.8453 8.68184C11.8453 10.2527 10.5716 11.5263 9.00078 11.5263C7.42974 11.5263 6.15631 10.2527 6.15631 8.68184C6.15631 7.1108 7.42974 5.83736 9.00078 5.83736Z" fill="white"/>
</svg>
