<svg width="16" height="14" viewBox="0 0 16 14" fill="none" xmlns="http://www.w3.org/2000/svg">
<path fill-rule="evenodd" clip-rule="evenodd" d="M7.5208 3.68674L7.55438 4.24038L6.99479 4.17258C4.95791 3.91271 3.17843 3.03141 1.66756 1.55129L0.928908 0.81687L0.73865 1.35921C0.33575 2.56817 0.593158 3.84492 1.43253 4.70362C1.8802 5.17817 1.77948 5.24596 1.00725 4.96349C0.73865 4.8731 0.503625 4.80531 0.481242 4.83921C0.4029 4.9183 0.6715 5.94648 0.884142 6.35323C1.17513 6.91817 1.76828 7.4718 2.4174 7.79946L2.96579 8.05933L2.31668 8.07063C1.68994 8.07063 1.66756 8.08193 1.73471 8.3192C1.95854 9.05362 2.84268 9.83323 3.82755 10.1722L4.52143 10.4095L3.91708 10.771C3.02175 11.2908 1.96973 11.5845 0.917717 11.6071C0.414092 11.6184 0 11.6636 0 11.6975C0 11.8105 1.36538 12.4432 2.15999 12.6918C4.54382 13.4262 7.37531 13.1099 9.50173 11.8557C11.0126 10.9631 12.5235 9.1892 13.2286 7.4718C13.6091 6.55661 13.9896 4.8844 13.9896 4.08219C13.9896 3.56245 14.0232 3.49466 14.6499 2.87323C15.0192 2.51167 15.3662 2.11622 15.4333 2.00323C15.5452 1.78856 15.534 1.78856 14.9633 1.98064C14.012 2.3196 13.8777 2.2744 14.3477 1.76596C14.6947 1.4044 15.1088 0.749078 15.1088 0.557C15.1088 0.523104 14.9409 0.579597 14.7506 0.681286C14.5492 0.794273 14.1015 0.963753 13.7658 1.06544L13.1614 1.25752L12.613 0.884662C12.3108 0.681286 11.8856 0.455312 11.6617 0.38752C11.0909 0.229338 10.218 0.251935 9.70318 0.432714C8.30422 0.941156 7.42008 2.2518 7.5208 3.68674Z" fill="white"/>
</svg>
