<svg width="18" height="14" viewBox="0 0 18 14" fill="none" xmlns="http://www.w3.org/2000/svg">
<path fill-rule="evenodd" clip-rule="evenodd" d="M15.6677 1.18116C16.4021 1.38267 16.9804 1.97642 17.1767 2.73042C17.5333 4.09697 17.5333 6.94827 17.5333 6.94827C17.5333 6.94827 17.5333 9.79948 17.1767 11.1661C16.9804 11.9201 16.4021 12.5139 15.6677 12.7155C14.3369 13.0816 9.00001 13.0816 9.00001 13.0816C9.00001 13.0816 3.66309 13.0816 2.33218 12.7155C1.59783 12.5139 1.0195 11.9201 0.823232 11.1661C0.466675 9.79948 0.466675 6.94827 0.466675 6.94827C0.466675 6.94827 0.466675 4.09697 0.823232 2.73042C1.0195 1.97642 1.59783 1.38267 2.33218 1.18116C3.66309 0.814941 9.00001 0.814941 9.00001 0.814941C9.00001 0.814941 14.3369 0.814941 15.6677 1.18116ZM7.40002 4.54822V9.88155L11.6667 7.21499L7.40002 4.54822Z" fill="white"/>
</svg>
